<?xml version="1.0" encoding="UTF-8"?>
<svg version="1.1" xmlns="http://www.w3.org/2000/svg" width="500" height="500">
<path d="M0 0 C165 0 330 0 500 0 C500 165 500 330 500 500 C335 500 170 500 0 500 C0 335 0 170 0 0 Z " fill="#000000" transform="translate(0,0)"/>
<path d="M0 0 C0.44730469 0.38671875 0.89460937 0.7734375 1.35546875 1.171875 C2.61107304 2.25346164 3.87454323 3.32596438 5.14453125 4.390625 C7 6 7 6 9.375 8.5 C12.43503019 10.24858868 13.06040754 10.05716351 16.375 9.3125 C17.43847656 8.99732422 17.43847656 8.99732422 18.5234375 8.67578125 C26.0103555 6.63282098 33.54071025 6.81671273 41.25 6.8125 C42.41402344 6.80025391 43.57804687 6.78800781 44.77734375 6.77539062 C51.25743246 6.76450582 57.3163932 7.18725218 63.66210938 8.52636719 C67.91421183 9.38779981 71.90289445 10.0591016 75.94140625 8.01953125 C79.3003136 5.74052313 81.6585883 3.32726925 84 0 C84.66 0 85.32 0 86 0 C87.00787813 3.02363439 87.13382883 5.08927716 87.125 8.25 C87.125 9.23097656 87.125 10.21195313 87.125 11.22265625 C87 14 87 14 86.125 17.6875 C85.95768169 22.12143521 87.66673395 23.58263841 90.4296875 26.87890625 C93.48368096 31.00407652 95 35.89206625 95 41 C94.01 41 93.02 41 92 41 C92.66 41.99 93.32 42.98 94 44 C96.85190287 54.51182146 95.19267945 65.79482818 92 76 C90.68 76 89.36 76 88 76 C82.62921593 76.57064581 80.53439084 79.05121014 77.03125 82.9296875 C71.77655325 88.28543611 65.2065926 90.55868148 58 92 C58 91.01 58 90.02 58 89 C50.13742228 91.64430772 50.13742228 91.64430772 44 97 C41.44169552 95.77201385 39.01936476 94.42944859 36.5625 93 C33.78665097 91.39670789 31.01976188 90.09809523 28 89 C28 89.99 28 90.98 28 92 C26.54096742 91.69078116 25.08279278 91.37751201 23.625 91.0625 C22.81289063 90.88847656 22.00078125 90.71445313 21.1640625 90.53515625 C19 90 19 90 17 89 C15.50970275 88.90199248 14.01510555 88.86616147 12.52159691 88.8613348 C11.57361461 88.85586036 10.62563231 88.85038591 9.64892328 88.84474558 C8.60030197 88.84376747 7.55168067 88.84278936 6.47128296 88.84178162 C4.80875565 88.83437465 4.80875565 88.83437465 3.11264193 88.82681805 C-0.62623843 88.81137773 -4.36510154 88.80306479 -8.10400391 88.79467773 C-10.77421829 88.78510434 -13.4444285 88.77513837 -16.11463928 88.76467896 C-21.87627059 88.74289707 -27.6379042 88.72475886 -33.39955521 88.70907402 C-41.7300023 88.68639096 -50.06042383 88.65824598 -58.39084928 88.62875474 C-71.90541169 88.58105963 -85.41998453 88.53780065 -98.93457031 88.49731445 C-112.06511243 88.45796929 -125.19564527 88.41654542 -138.32617188 88.37231445 C-139.13512223 88.36959018 -139.94407258 88.36686591 -140.77753659 88.36405908 C-144.83567874 88.35037977 -148.89382076 88.33665946 -152.95196271 88.32291877 C-186.63462266 88.20892385 -220.31730197 88.10212117 -254 88 C-254.02086801 86.0824033 -254.03574415 84.16474078 -254.0480957 82.24707031 C-254.05702347 81.17918274 -254.06595123 80.11129517 -254.07514954 79.01104736 C-253.92528324 73.00629293 -251.88507768 67.66919658 -250 62 C-249.79632813 61.28328125 -249.59265625 60.5665625 -249.3828125 59.828125 C-244.13767669 43.01494993 -229.18483551 28.11147285 -214.2265625 19.61328125 C-199.48990005 12.24495003 -186.23065633 10.70106256 -170.02172852 10.75708008 C-168.21233553 10.7560057 -166.40294287 10.75406472 -164.59355164 10.75132751 C-159.70563413 10.74650327 -154.81780869 10.75410278 -149.92990232 10.76428056 C-144.80905854 10.77309341 -139.68821737 10.77130304 -134.56736755 10.7709198 C-125.97726915 10.7718545 -117.38720622 10.78051527 -108.79711914 10.79418945 C-98.86085387 10.80994791 -88.92462731 10.81518624 -78.98835045 10.8144539 C-69.42447342 10.81384419 -59.86060901 10.81894221 -50.29673576 10.82724571 C-46.22701863 10.83077906 -42.15730595 10.83260902 -38.08758736 10.83313942 C-33.30312871 10.83414196 -28.51870271 10.84023123 -23.73425484 10.85030556 C-21.97620849 10.85323202 -20.21815839 10.85445563 -18.46010971 10.85387802 C-16.06631278 10.85338903 -13.67260798 10.85902603 -11.27882385 10.86628723 C-10.57844909 10.86473863 -9.87807432 10.86319003 -9.15647608 10.8615945 C-6.15249461 10.87671141 -3.87618732 11.04127089 -1 12 C-1.01160156 11.30132812 -1.02320313 10.60265625 -1.03515625 9.8828125 C-1.04417969 8.97273438 -1.05320312 8.06265625 -1.0625 7.125 C-1.07410156 6.22007813 -1.08570313 5.31515625 -1.09765625 4.3828125 C-1 2 -1 2 0 0 Z " fill="#EFAA1F" transform="translate(339,74)"/>
<path d="M0 0 C104.28 0 208.56 0 316 0 C316 18.46426541 310.80011285 34.70500615 299 49 C298.39542969 49.77859375 297.79085938 50.5571875 297.16796875 51.359375 C285.66048485 65.4106185 267.67005744 74.06574021 250 77 C243.97885773 77.52386897 237.92585503 77.42162924 231.88745117 77.40405273 C230.0987048 77.40976736 228.30996207 77.4167358 226.52122498 77.42485046 C221.69870693 77.44267815 216.87637187 77.44163297 212.05383086 77.43590808 C208.01104454 77.43280055 203.96829259 77.4389261 199.92551118 77.44494683 C190.3786153 77.45895688 180.83180897 77.45746067 171.28491211 77.44604492 C161.47428495 77.43457219 151.66393144 77.44863329 141.85334033 77.4754414 C133.39512923 77.49767868 124.93700353 77.50421761 116.47876531 77.49836498 C111.44257092 77.49501275 106.40655179 77.49729393 101.37038231 77.51461601 C96.63004079 77.5302113 91.89010093 77.52599179 87.14977455 77.50731087 C85.42298579 77.50365926 83.69616643 77.50663164 81.96940613 77.51719666 C67.96610213 77.59624721 55.26480097 76.31754905 43 69 C41.948125 68.608125 40.89625 68.21625 39.8125 67.8125 C24.55653365 61.4358489 12.4757067 46.33989618 5.90625 31.53515625 C5.2251737 29.70646639 4.60696239 27.85460729 4 26 C3.67 25.37351562 3.34 24.74703125 3 24.1015625 C1.86212711 21.7102515 1.35801111 19.54039319 0.875 16.9375 C0.70742187 16.08027344 0.53984375 15.22304688 0.3671875 14.33984375 C-0.15535098 9.58696711 0 4.7815147 0 0 Z " fill="#F1AB40" transform="translate(85,338)"/>
<path d="M0 0 C31.17695755 -0.06857234 62.353895 -0.12159826 93.53091016 -0.15319599 C97.21925599 -0.1569477 100.90760166 -0.16083071 104.59594727 -0.16479492 C105.33016984 -0.16558185 106.06439241 -0.16636878 106.82086415 -0.16717956 C118.67871221 -0.1802011 130.53651623 -0.20383684 142.39433824 -0.23145839 C154.5793413 -0.25960342 166.76432144 -0.2761954 178.94935566 -0.28226548 C186.45628939 -0.28636315 193.9630986 -0.29926188 201.46999396 -0.3237494 C207.24535229 -0.34161853 213.02063245 -0.34334284 218.79601288 -0.33932304 C221.15127639 -0.34014284 223.50654498 -0.3460356 225.86178017 -0.35761642 C253.05843186 -0.48469207 275.43228306 3.64999475 295.41015625 23.3125 C303.07071153 31.26191483 310.07531055 40.5954968 311 52 C311.66 52 312.32 52 313 52 C315.85083102 58.08177284 316.05301366 64.1779547 316.0234375 70.7734375 C316.02005371 71.75489746 316.01666992 72.73635742 316.01318359 73.74755859 C316.00883301 74.49086426 316.00448242 75.23416992 316 76 C284.80602066 76.06855952 253.6120614 76.12159168 222.41802451 76.15319599 C218.72838991 76.15694774 215.03875547 76.16083074 211.34912109 76.16479492 C210.61463621 76.16558185 209.88015133 76.16636878 209.12340933 76.16717956 C197.25841921 76.18020418 185.39347307 76.20384165 173.52850896 76.23145839 C161.33786067 76.2595948 149.14723527 76.2761936 136.95655584 76.28226548 C129.44501287 76.28636492 121.93359424 76.29927346 114.42208958 76.3237494 C108.64500082 76.34160546 102.86799027 76.34334498 97.09087944 76.33932304 C94.73358334 76.34014345 92.3762822 76.34604457 90.01901436 76.35761642 C63.90912333 76.47942449 42.35150155 73.10097073 22.640625 54.62890625 C15.74848485 47.76735252 11.15787173 40.97591902 7.3125 32.03125 C6.23580632 29.54460032 5.0664047 27.2367849 3.75 24.875 C0.57707279 18.5820277 -0.04540341 11.76067792 -0.01855469 4.80615234 C-0.01587585 3.9060141 -0.01319702 3.00587585 -0.01043701 2.07846069 C-0.0069928 1.39256866 -0.00354858 0.70667664 0 0 Z " fill="#F0AA1F" transform="translate(85,212)"/>
<path d="M0 0 C104.28 0 208.56 0 316 0 C316 18.46426541 310.80011285 34.70500615 299 49 C298.39542969 49.77859375 297.79085938 50.5571875 297.16796875 51.359375 C285.66048485 65.4106185 267.67005744 74.06574021 250 77 C243.97885773 77.52386897 237.92585503 77.42162924 231.88745117 77.40405273 C230.0987048 77.40976736 228.30996207 77.4167358 226.52122498 77.42485046 C221.69870693 77.44267815 216.87637187 77.44163297 212.05383086 77.43590808 C208.01104454 77.43280055 203.96829259 77.4389261 199.92551118 77.44494683 C190.3786153 77.45895688 180.83180897 77.45746067 171.28491211 77.44604492 C161.47428495 77.43457219 151.66393144 77.44863329 141.85334033 77.4754414 C133.39512923 77.49767868 124.93700353 77.50421761 116.47876531 77.49836498 C111.44257092 77.49501275 106.40655179 77.49729393 101.37038231 77.51461601 C96.63004079 77.5302113 91.89010093 77.52599179 87.14977455 77.50731087 C85.42298579 77.50365926 83.69616643 77.50663164 81.96940613 77.51719666 C67.96610213 77.59624721 55.26480097 76.31754905 43 69 C41.948125 68.608125 40.89625 68.21625 39.8125 67.8125 C24.55653365 61.4358489 12.4757067 46.33989618 5.90625 31.53515625 C5.2251737 29.70646639 4.60696239 27.85460729 4 26 C3.67 25.37351562 3.34 24.74703125 3 24.1015625 C1.86212711 21.7102515 1.35801111 19.54039319 0.875 16.9375 C0.70742187 16.08027344 0.53984375 15.22304688 0.3671875 14.33984375 C-0.15535098 9.58696711 0 4.7815147 0 0 Z M38.9765625 26.68359375 C38.53054687 27.26238281 38.08453125 27.84117187 37.625 28.4375 C37.16351563 29.01371094 36.70203125 29.58992188 36.2265625 30.18359375 C32.1486199 36.22258517 32.45485206 41.85051885 33 49 C34.74976558 54.90545882 39.24645237 58.33643781 44 62 C47.63311859 63.81655929 52.22184106 63.58460602 56.26367188 63.81054688 C60.78520723 64.22232242 63.26929284 65.05768619 66.74021912 68.01423645 C73.42757394 72.58404884 80.91494031 71.83149899 88.68383789 71.76049805 C90.36675649 71.76699956 92.04966682 71.7760665 93.7325592 71.78749084 C98.28229548 71.81048318 102.83118814 71.79590623 107.38089681 71.77302146 C112.15241574 71.7540434 116.9238803 71.76527339 121.69541931 71.77192688 C129.70569184 71.77825835 137.71562812 71.76004357 145.72583008 71.72729492 C154.97540986 71.68979101 164.22435317 71.69158747 173.47396666 71.7143361 C182.38809872 71.73531153 191.30199642 71.72799693 200.21612358 71.70801735 C204.00266689 71.70004866 207.78901103 71.70200196 211.57554817 71.71204185 C216.0368942 71.72262132 220.49750153 71.70838546 224.9587307 71.67529869 C226.59210325 71.66711688 228.22554379 71.66734557 229.85890961 71.67677689 C238.45149139 71.72092905 245.15691687 71.68057057 252 66 C256.01690596 64.17413365 259.46598253 63.92583889 263.8125 63.75 C270.19192541 63.29828913 274.30119256 61.30060342 279 57 C283.34386608 51.98042142 284.37310615 47.10313944 284.26953125 40.625 C283.51853915 33.31098998 279.40004826 28.97777575 274 24.34765625 C269.53380382 21.33820765 264.46206659 21.85415864 259.25872803 21.85955811 C258.36665689 21.85658698 257.47458575 21.85361586 256.55548215 21.8505547 C253.56009062 21.84186877 250.56473907 21.84035954 247.56933594 21.83886719 C245.42411717 21.83423894 243.27889923 21.82921427 241.13368225 21.82382202 C235.30092366 21.81069664 229.46817659 21.80425278 223.63540554 21.79981136 C219.99164869 21.79688085 216.34789498 21.79277608 212.70413971 21.78830719 C201.30460396 21.77463187 189.90507541 21.76496539 178.50553203 21.7611053 C165.34472886 21.75662439 152.18402955 21.73907502 139.02325797 21.7101047 C128.85158441 21.6884911 118.67994008 21.67840119 108.5082438 21.67706418 C102.43261744 21.67601592 96.3570887 21.67010356 90.28148651 21.65224457 C84.56547376 21.63576956 78.84963207 21.63360571 73.13360405 21.64238358 C71.03740671 21.64315425 68.9412002 21.63880723 66.84502602 21.62892532 C63.97954944 21.61621059 61.11467915 21.62208023 58.24920654 21.63250732 C57.42312008 21.62445092 56.59703361 21.61639452 55.74591422 21.60809398 C49.59699273 21.66028916 43.85723164 22.62265089 38.9765625 26.68359375 Z " fill="#ECA71F" transform="translate(85,338)"/>
<path d="M0 0 C0.51949219 0.42152344 1.03898437 0.84304687 1.57421875 1.27734375 C2.27160156 1.82519531 2.96898437 2.37304688 3.6875 2.9375 C4.37199219 3.48277344 5.05648438 4.02804688 5.76171875 4.58984375 C9.07112804 6.67482936 11.71511722 7.27262115 15.57055664 6.45458984 C16.94522095 6.02460693 16.94522095 6.02460693 18.34765625 5.5859375 C25.73645523 3.60338382 32.82520939 3.55806242 40.4375 3.625 C41.75298828 3.61339844 43.06847656 3.60179688 44.42382812 3.58984375 C52.08800898 3.61259738 58.92583913 4.37806239 66.31274414 6.45458984 C69.06508655 7.01321008 70.41935225 7.02666799 73 6 C74.678298 4.68133728 76.34614767 3.34919532 78 2 C78.66 2 79.32 2 80 2 C80 1.34 80 0.68 80 0 C80.66 0 81.32 0 82 0 C82.08185666 3.92911948 81.99969251 7.00136176 81.125 10.875 C80.57304222 14.67982896 81.63334538 16.45469837 83.8125 19.5625 C84.64587891 20.67625 84.64587891 20.67625 85.49609375 21.8125 C87.55127783 24.80185866 88.25052709 27.47747734 89 31 C88.01 31 87.02 31 86 31 C86.28875 31.59683594 86.5775 32.19367188 86.875 32.80859375 C91.03622417 42.53256551 91.48428633 53.69930059 89 64 C87.515 63.505 87.515 63.505 86 63 C86 62.34 86 61.68 86 61 C83.24607226 63.64593057 80.9292392 66.35042717 78.6875 69.4375 C74.4715886 74.92630971 69.75656586 78.93549377 63 81 C62.01 81 61.02 81 60 81 C60 80.01 60 79.02 60 78 C57.55847449 78.92795988 55.12215032 79.86680938 52.6875 80.8125 C51.99720703 81.07353516 51.30691406 81.33457031 50.59570312 81.60351562 C45.73849908 83.49702159 45.73849908 83.49702159 42 87 C39.08482708 85.92598892 37.22189824 85.22189824 35 83 C33.18768918 82.25885437 31.35034143 81.57781552 29.5 80.9375 C24.13043478 79.06521739 24.13043478 79.06521739 22 78 C22 78.99 22 79.98 22 81 C15.0279436 80.85165837 10.89647264 77.82127084 6 73 C3.13697064 69.45688226 0.51824775 65.7945259 -2 62 C-4.475 62.495 -4.475 62.495 -7 63 C-10.02755847 53.9173246 -8.85085731 41.62592037 -5 33 C-4.67 32.34 -4.34 31.68 -4 31 C-4.99 31 -5.98 31 -7 31 C-6.72243835 25.58754788 -4.46902444 22.38784599 -1.375 18.1484375 C-0.01478953 16.02310864 0.66384456 14.48965122 1 12 C0.67 11.34 0.34 10.68 0 10 C-0.06996014 8.29297265 -0.08440154 6.58331997 -0.0625 4.875 C-0.05347656 3.96492188 -0.04445313 3.05484375 -0.03515625 2.1171875 C-0.02355469 1.41851562 -0.01195312 0.71984375 0 0 Z " fill="#080706" transform="translate(341,80)"/>
<path d="M0 0 C0.44730469 0.38671875 0.89460938 0.7734375 1.35546875 1.171875 C2.61107304 2.25346164 3.87454323 3.32596438 5.14453125 4.390625 C7 6 7 6 9.375 8.5 C12.43503019 10.24858868 13.06040754 10.05716351 16.375 9.3125 C17.43847656 8.99732422 17.43847656 8.99732422 18.5234375 8.67578125 C26.0103555 6.63282098 33.54071025 6.81671273 41.25 6.8125 C42.99603516 6.79413086 42.99603516 6.79413086 44.77734375 6.77539062 C51.25743246 6.76450582 57.3163932 7.18725218 63.66210938 8.52636719 C67.91421183 9.38779981 71.90289445 10.0591016 75.94140625 8.01953125 C79.3003136 5.74052313 81.6585883 3.32726925 84 0 C84.66 0 85.32 0 86 0 C87.00787813 3.02363439 87.13382883 5.08927716 87.125 8.25 C87.125 9.23097656 87.125 10.21195313 87.125 11.22265625 C87 14 87 14 86.125 17.6875 C85.95768169 22.12143521 87.66673395 23.58263841 90.4296875 26.87890625 C93.48368096 31.00407652 95 35.89206625 95 41 C94.01 41 93.02 41 92 41 C92.66 41.99 93.32 42.98 94 44 C96.85190287 54.51182146 95.19267945 65.79482818 92 76 C90.68 76 89.36 76 88 76 C82.62921593 76.57064581 80.53439084 79.05121014 77.03125 82.9296875 C71.77655325 88.28543611 65.2065926 90.55868148 58 92 C58 91.01 58 90.02 58 89 C50.13742228 91.64430772 50.13742228 91.64430772 44 97 C41.44169552 95.77201385 39.01936476 94.42944859 36.5625 93 C33.78665097 91.39670789 31.01976188 90.09809523 28 89 C28 89.99 28 90.98 28 92 C17.19783369 90.40623776 9.13807895 85.09636887 2.2421875 76.69921875 C1 75 1 75 0 73 C-0.66 73 -1.32 73 -2 73 C-2.66 74.32 -3.32 75.64 -4 77 C-4.66 77 -5.32 77 -6 77 C-8.49566165 70.25577148 -9.3007947 63.88291698 -9.3125 56.75 C-9.31765625 55.99412598 -9.3228125 55.23825195 -9.328125 54.45947266 C-9.26874702 49.62758976 -8.52286712 45.58680296 -7 41 C-7.99 41 -8.98 41 -10 41 C-9.3787866 36.52385963 -7.61415936 32.84460569 -5.5625 28.875 C-5.24990234 28.25496094 -4.93730469 27.63492188 -4.61523438 26.99609375 C-3.20018375 24.2138589 -1.7336571 21.60048565 0 19 C-0.30077325 16.994845 -0.6435691 14.99601306 -1 13 C-1.40314136 2.80628272 -1.40314136 2.80628272 0 0 Z M2 6 C1.71330331 12.40687364 1.71330331 12.40687364 2.875 18.625 C3.06918476 22.31451048 0.8356644 24.28501063 -1.45703125 27.03515625 C-4.23181907 30.56862023 -5 32.41337586 -5 37 C-4.01 37 -3.02 37 -2 37 C-2.7115625 38.3303125 -2.7115625 38.3303125 -3.4375 39.6875 C-6.17080532 45.48210728 -6.1552971 50.83330172 -6.125 57.125 C-6.12886719 57.93582031 -6.13273437 58.74664062 -6.13671875 59.58203125 C-6.13542969 60.36191406 -6.13414062 61.14179688 -6.1328125 61.9453125 C-6.13168457 62.65187988 -6.13055664 63.35844727 -6.12939453 64.08642578 C-6.06552723 66.22259189 -6.06552723 66.22259189 -5 69 C-2.525 68.505 -2.525 68.505 0 68 C0.70962891 69.06927734 0.70962891 69.06927734 1.43359375 70.16015625 C8.52390624 80.48119834 8.52390624 80.48119834 19.125 86.64453125 C21.22017652 87.00376713 21.22017652 87.00376713 24 87 C24 86.01 24 85.02 24 84 C24.59167969 84.26554687 25.18335938 84.53109375 25.79296875 84.8046875 C30.76133018 87.03285801 30.76133018 87.03285801 35.8125 89.0625 C38.18742198 90.0803237 40.00275761 91.37261732 42 93 C43.96000056 92.024336 45.9159962 91.04359021 47.859375 90.03515625 C52.47526657 87.6604517 57.11128688 85.74596897 62 84 C62 84.99 62 85.98 62 87 C68.48782917 86.21359646 74.33029808 82.43621682 79 78 C80.89069412 75.42552543 82.68917581 72.80996214 84.44921875 70.14453125 C86 68 86 68 88 67 C88.33 67.99 88.66 68.98 89 70 C89.66 70 90.32 70 91 70 C93.66473439 58.95110132 92.94688638 47.22503748 88 37 C88.99 37 89.98 37 91 37 C89.69859366 32.33398215 88.60527425 28.45458227 85.25 24.875 C81.61938229 20.33401844 83.00456864 14.44461672 83.60546875 9.03515625 C83.73566406 8.03355469 83.86585938 7.03195313 84 6 C83.34 6 82.68 6 82 6 C82 6.66 82 7.32 82 8 C81.13375 8.4021875 81.13375 8.4021875 80.25 8.8125 C77.95684346 9.90987636 77.95684346 9.90987636 76.1640625 11.62109375 C74 13 74 13 71.6328125 12.890625 C70.80523437 12.67921875 69.97765625 12.4678125 69.125 12.25 C61.00444711 10.26441027 53.29377604 9.78326876 44.96191406 9.75976562 C42.90127193 9.75012294 40.84165618 9.71907711 38.78125 9.6875 C31.33677096 9.63058468 24.68727939 10.20086862 17.55517578 12.45019531 C13.70770023 13.27806794 11.06493038 12.67092472 7.76171875 10.58984375 C7.07722656 10.04457031 6.39273437 9.49929687 5.6875 8.9375 C4.99011719 8.38964844 4.29273438 7.84179688 3.57421875 7.27734375 C3.05472656 6.85582031 2.53523438 6.43429688 2 6 Z " fill="#919493" transform="translate(339,74)"/>
<path d="M0 0 C2.41026225 0.9641049 3.73884469 1.57298816 5.11328125 3.8203125 C7.95143832 10.79692767 5.41362764 18.26195616 3 25 C2.7834375 25.66386719 2.566875 26.32773438 2.34375 27.01171875 C0.41842575 32.29490018 -2.85928993 35.52903453 -7.8515625 37.8671875 C-10.6546972 38.95047063 -13.491875 39.84848332 -16.37109375 40.70703125 C-20.8881393 42.09403867 -23.95322995 43.15842037 -27 47 C-28.93679368 46.04224488 -30.86060636 45.07668202 -32.75390625 44.03515625 C-36.66775056 41.93030261 -40.20818454 40.6770864 -44.5625 39.75 C-50.65752253 38.17981414 -53.66889053 35.2462705 -57 30 C-60.5054756 23.4607336 -62.14520792 17.87244706 -62.1875 10.4375 C-62.20167969 9.30183594 -62.21585937 8.16617188 -62.23046875 6.99609375 C-62 4 -62 4 -60 1 C-59.01 1 -58.02 1 -57 1 C-56.6596875 2.794375 -56.6596875 2.794375 -56.3125 4.625 C-55.2051224 9.16767308 -53.19168889 11.64032749 -50 15 C-50.99 15 -51.98 15 -53 15 C-53 15.66 -53 16.32 -53 17 C-49.37 17 -45.74 17 -42 17 C-42.33 18.98 -42.66 20.96 -43 23 C-42.34 23 -41.68 23 -41 23 C-40.90525391 23.8353125 -40.90525391 23.8353125 -40.80859375 24.6875 C-39.75003998 31.28396141 -37.15081802 35.69560899 -32 40 C-29.37633398 41.22448925 -29.37633398 41.22448925 -27 42 C-19.92721812 36.72563916 -15.74216642 31.80464106 -14 23 C-14.08736984 19.49419545 -14.08736984 19.49419545 -15 17 C-11.04 17 -7.08 17 -3 17 C-3 16.34 -3 15.68 -3 15 C-3.99 14.67 -4.98 14.34 -6 14 C-5.195625 13.175 -4.39125 12.35 -3.5625 11.5 C-0.44499414 7.81887726 -0.24498936 4.73646089 0 0 Z " fill="#F0F0F0" transform="translate(410,109)"/>
<path d="M0 0 C0.44730469 0.38671875 0.89460938 0.7734375 1.35546875 1.171875 C2.61107304 2.25346164 3.87454323 3.32596438 5.14453125 4.390625 C7 6 7 6 9.375 8.5 C12.43503019 10.24858868 13.06040754 10.05716351 16.375 9.3125 C17.43847656 8.99732422 17.43847656 8.99732422 18.5234375 8.67578125 C26.24946237 6.56757572 33.98463566 6.8832854 41.9375 6.9375 C43.19369141 6.94201172 44.44988281 6.94652344 45.74414062 6.95117188 C48.82947663 6.96290319 51.91471316 6.979319 55 7 C55.495 7.99 55.495 7.99 56 9 C55.34628418 9.01458252 54.69256836 9.02916504 54.01904297 9.04418945 C40.45301308 9.38173002 28.07988236 10.33860249 14.9375 13.80859375 C11.11843383 14.05744248 9.97775832 13.02624582 7.125 10.5625 C6.34382813 9.90378906 5.56265625 9.24507812 4.7578125 8.56640625 C4.17773438 8.04949219 3.59765625 7.53257813 3 7 C2.74845813 12.87208439 2.74845813 12.87208439 3.875 18.5625 C4.06534919 22.27430927 1.85495476 24.07389245 -0.4296875 26.86328125 C-2.76457758 30.04035804 -3.79863676 33.26242546 -5 37 C-4.01 37 -3.02 37 -2 37 C-2.32484375 37.82564453 -2.32484375 37.82564453 -2.65625 38.66796875 C-5.9690152 48.56025373 -5.27954391 58.70561615 -5 69 C-2.525 68.01 -2.525 68.01 0 67 C0.556875 67.79664063 1.11375 68.59328125 1.6875 69.4140625 C7.83646068 77.95197749 13.32238255 84.77549636 24 87 C24 86.01 24 85.02 24 84 C26.02045442 84.60183749 28.02111039 85.27306096 30 86 C30.33 86.66 30.66 87.32 31 88 C29.68 88 28.36 88 27 88 C27 88.99 27 89.98 27 91 C18.38848332 90.83751855 11.87691425 86.788338 5.77734375 80.828125 C3.55948157 78.33246078 1.49699794 75.99399588 0 73 C-0.66 73 -1.32 73 -2 73 C-2.66 74.32 -3.32 75.64 -4 77 C-4.66 77 -5.32 77 -6 77 C-8.49566165 70.25577148 -9.3007947 63.88291698 -9.3125 56.75 C-9.31765625 55.99412598 -9.3228125 55.23825195 -9.328125 54.45947266 C-9.26874702 49.62758976 -8.52286712 45.58680296 -7 41 C-7.99 41 -8.98 41 -10 41 C-9.3787866 36.52385963 -7.61415936 32.84460569 -5.5625 28.875 C-5.24990234 28.25496094 -4.93730469 27.63492188 -4.61523438 26.99609375 C-3.20018375 24.2138589 -1.7336571 21.60048565 0 19 C-0.30077325 16.994845 -0.6435691 14.99601306 -1 13 C-1.40314136 2.80628272 -1.40314136 2.80628272 0 0 Z " fill="#9B9C97" transform="translate(339,74)"/>
<path d="M0 0 C7.28960463 0.69087383 14.4968937 0.65244598 21.8125 0.5625 C23.22020875 3.37791749 22.44783147 4.65624153 21.5 7.625 C18.98579029 14.40710306 14.42532623 18.22434232 8.8125 22.5625 C5.17552192 21.29800848 2.80678449 19.94762876 0.125 17.1875 C-0.45636719 16.60226563 -1.03773438 16.01703125 -1.63671875 15.4140625 C-5.17457961 11.19001704 -5.39819421 8.04054944 -5.1875 2.5625 C-5.8475 2.5625 -6.5075 2.5625 -7.1875 2.5625 C-7.1875 1.9025 -7.1875 1.2425 -7.1875 0.5625 C-4.53505734 -0.76372133 -2.94468205 -0.32188832 0 0 Z " fill="#070605" transform="translate(374.1875,129.4375)"/>
<path d="M0 0 C2.41026225 0.9641049 3.73884469 1.57298816 5.11328125 3.8203125 C8.46464273 12.05846099 4.54069704 21.32034003 1.4375 29.0625 C0 32 0 32 -2 33 C-2 32.34 -2 31.68 -2 31 C-4.08696247 31.39809111 -6.1695344 31.8192428 -8.25 32.25 C-9.99023438 32.59804687 -9.99023438 32.59804687 -11.765625 32.953125 C-15.21862471 34.07076259 -16.70270657 35.24779698 -19 38 C-19.66 37.67 -20.32 37.34 -21 37 C-20.55140625 36.61457031 -20.1028125 36.22914063 -19.640625 35.83203125 C-16.45775403 32.27782533 -15.19338297 27.55301545 -14 23 C-14.08736984 19.49419545 -14.08736984 19.49419545 -15 17 C-11.04 17 -7.08 17 -3 17 C-3 16.34 -3 15.68 -3 15 C-3.99 14.67 -4.98 14.34 -6 14 C-5.195625 13.175 -4.39125 12.35 -3.5625 11.5 C-0.44499414 7.81887726 -0.24498936 4.73646089 0 0 Z " fill="#AAACAC" transform="translate(410,109)"/>
<path d="M0 0 C1.32 0 2.64 0 4 0 C4 0.66 4 1.32 4 2 C4.99 2 5.98 2 7 2 C7 1.34 7 0.68 7 0 C8.32 0 9.64 0 11 0 C11.33 0.66 11.66 1.32 12 2 C13.32 1.34 14.64 0.68 16 0 C13.2167907 5.43614072 10.59216906 9.93265026 6 14 C2.64170896 12.56285993 0.60029302 10.79022601 -1.8125 8.0625 C-2.43769531 7.37285156 -3.06289063 6.68320313 -3.70703125 5.97265625 C-4.13371094 5.32167969 -4.56039063 4.67070312 -5 4 C-4.67 3.01 -4.34 2.02 -4 1 C-2.515 1.99 -2.515 1.99 -1 3 C-0.67 2.01 -0.34 1.02 0 0 Z " fill="#D19A3D" transform="translate(377,135)"/>
<path d="M0 0 C0.66 0 1.32 0 2 0 C3.04976964 3.14930893 3.10131595 5.38814456 3.0625 8.6875 C3.05347656 9.68136719 3.04445313 10.67523438 3.03515625 11.69921875 C3.02355469 12.45847656 3.01195312 13.21773437 3 14 C0.0234375 11.3359375 0.0234375 11.3359375 -0.1875 8.3125 C-0.0946875 7.1678125 -0.0946875 7.1678125 0 6 C-0.66 6 -1.32 6 -2 6 C-2 6.66 -2 7.32 -2 8 C-4.32586068 10.62471429 -6.82655917 12.51053019 -10 14 C-13.55519004 13.97273627 -16.6164007 13.01295841 -20 12 C-24.11130647 11.21623681 -28.09287251 10.82846481 -32.2734375 10.68359375 C-33.42714844 10.64169922 -34.58085937 10.59980469 -35.76953125 10.55664062 C-36.95933594 10.51732422 -38.14914062 10.47800781 -39.375 10.4375 C-40.58800781 10.39431641 -41.80101562 10.35113281 -43.05078125 10.30664062 C-46.03375032 10.20094487 -49.01679742 10.09884679 -52 10 C-52 9.67 -52 9.34 -52 9 C-47.96178295 8.83166143 -43.92333583 8.67118279 -39.88452148 8.51782227 C-38.51204126 8.46461784 -37.13964095 8.40930691 -35.76733398 8.35180664 C-33.7891258 8.26929161 -31.81057586 8.19510415 -29.83203125 8.12109375 C-28.64327393 8.0739624 -27.4545166 8.02683105 -26.22973633 7.97827148 C-23.2968667 7.99800279 -20.84408631 8.34768663 -18 9 C-12.08968663 9.57196581 -9.12932593 9.09677477 -4.46875 5.37890625 C-2.72967098 3.74620706 -1.37028507 1.94724721 0 0 Z " fill="#878989" transform="translate(423,74)"/>
<path d="M0 0 C1.32 0 2.64 0 4 0 C2.67251516 9.02689688 -2.24413617 13.4196848 -9 19 C-14.28667748 17.14374835 -17.51655298 14.33635286 -21 10 C-22.4375 6.5625 -22.4375 6.5625 -23 4 C-21.68 3.34 -20.36 2.68 -19 2 C-18.90847656 2.73605469 -18.81695312 3.47210938 -18.72265625 4.23046875 C-17.88361172 7.44605024 -16.68711608 8.89927548 -14.4375 11.3125 C-13.79683594 12.00988281 -13.15617187 12.70726562 -12.49609375 13.42578125 C-12.00238281 13.94527344 -11.50867188 14.46476563 -11 15 C-7.19030112 13.50814889 -5.54171208 11.39723489 -3.25 8.0625 C-2.63640625 7.18722656 -2.0228125 6.31195313 -1.390625 5.41015625 C0.24988148 3.03068042 0.24988148 3.03068042 0 0 Z " fill="#231E16" transform="translate(392,133)"/>
<path d="M0 0 C0 4.29 0 8.58 0 13 C-6.93 12.505 -6.93 12.505 -14 12 C-13.67 10.68 -13.34 9.36 -13 8 C-16.63 8 -20.26 8 -24 8 C-24 7.34 -24 6.68 -24 6 C-19.71 6.33 -15.42 6.66 -11 7 C-11 7.66 -11 8.32 -11 9 C-10.34 9 -9.68 9 -9 9 C-8.773125 8.2575 -8.54625 7.515 -8.3125 6.75 C-6.65039308 3.26749027 -4.13573795 0 0 0 Z " fill="#E5A943" transform="translate(381,118)"/>
<path d="M0 0 C0.66 0.33 1.32 0.66 2 1 C2 1.66 2 2.32 2 3 C2.31478446 4.33783393 2.64587656 5.67203709 3 7 C2.34 7 1.68 7 1 7 C1 6.01 1 5.02 1 4 C-6.86257772 6.64430772 -6.86257772 6.64430772 -13 12 C-15.55830448 10.77201385 -17.98063524 9.42944859 -20.4375 8 C-23.21334903 6.39670789 -25.98023812 5.09809523 -29 4 C-29 4.99 -29 5.98 -29 7 C-29.99 6.67 -30.98 6.34 -32 6 C-31.34 6 -30.68 6 -30 6 C-30 5.01 -30 4.02 -30 3 C-25.57780026 1.97158145 -23.04393966 1.8716107 -19 4 C-17.63634717 4.95824253 -16.29205831 5.94721175 -15 7 C-12.98492462 5.99471631 -10.97204278 4.98577992 -8.96484375 3.96484375 C-8.29582031 3.62582031 -7.62679688 3.28679687 -6.9375 2.9375 C-6.26589844 2.59589844 -5.59429687 2.25429687 -4.90234375 1.90234375 C-3 1 -3 1 0 0 Z " fill="#959897" transform="translate(396,159)"/>
<path d="M0 0 C0.67095703 0.63228516 0.67095703 0.63228516 1.35546875 1.27734375 C1.96003906 1.82519531 2.56460937 2.37304688 3.1875 2.9375 C4.07501953 3.75541016 4.07501953 3.75541016 4.98046875 4.58984375 C6.93812084 6.17620053 6.93812084 6.17620053 9.484375 6.390625 C12.98217776 7.23791884 13.95625755 8.95253262 16.0625 11.8125 C18.53556907 15.1278817 21.00646753 18.13980973 24 21 C14.19520643 18.9021275 6.60726021 12.18543655 1 4.125 C0 2 0 2 0 0 Z " fill="#C28F39" transform="translate(346,90)"/>
<path d="M0 0 C0.33 1.32 0.66 2.64 1 4 C-5.14783854 10.11813884 -11.87402554 16 -21 16 C-21 15.01 -21 14.02 -21 13 C-21.66 12.67 -22.32 12.34 -23 12 C-22.34 11.01 -21.68 10.02 -21 9 C-20.01 9 -19.02 9 -18 9 C-18 9.99 -18 10.98 -18 12 C-11.09801173 9.1985127 -4.26002547 6.39003821 0 0 Z " fill="#8B8D8C" transform="translate(419,149)"/>
<path d="M0 0 C3.69764405 1.84882203 5.15326897 2.98157761 7.75 6 C8.67039062 7.051875 8.67039062 7.051875 9.609375 8.125 C11 10 11 10 11 12 C7.37 12 3.74 12 0 12 C0 8.04 0 4.08 0 0 Z " fill="#C6923A" transform="translate(382,118)"/>
<path d="M0 0 C0 4.30046518 -2.12010306 5.84727972 -4.93359375 8.93359375 C-9.68192591 13.68192591 -14.38677525 17.34669381 -21 19 C-20.61328125 18.55269531 -20.2265625 18.10539062 -19.828125 17.64453125 C-19.30734375 17.03996094 -18.7865625 16.43539062 -18.25 15.8125 C-17.69957031 15.17570312 -17.14914062 14.53890625 -16.58203125 13.8828125 C-15.30747825 12.36593708 -14.10914595 10.78519902 -12.9375 9.1875 C-10.71552208 6.67881525 -9.09383216 6.17860273 -6 5 C-3.89122843 3.43462347 -1.9711414 1.74193891 0 0 Z " fill="#D59D3E" transform="translate(416,91)"/>
<path d="M0 0 C1.32 0 2.64 0 4 0 C4 0.66 4 1.32 4 2 C4.99 2 5.98 2 7 2 C7 1.34 7 0.68 7 0 C8.32 0 9.64 0 11 0 C11.33 1.32 11.66 2.64 12 4 C7.75757576 8 7.75757576 8 4.4375 8 C1.57085668 6.8239412 0.02092346 5.32031952 -2 3 C-1.34 2.01 -0.68 1.02 0 0 Z " fill="#483C28" transform="translate(377,135)"/>
<path d="M0 0 C0.33 0.99 0.66 1.98 1 3 C1.66 3 2.32 3 3 3 C3.33 4.98 3.66 6.96 4 9 C3.01 9 2.02 9 1 9 C1.99 10.485 1.99 10.485 3 12 C3.22705078 14.0847168 3.22705078 14.0847168 3.1953125 16.44921875 C3.18886719 17.29677734 3.18242187 18.14433594 3.17578125 19.01757812 C3.15902344 19.89865234 3.14226562 20.77972656 3.125 21.6875 C3.11597656 22.58017578 3.10695313 23.47285156 3.09765625 24.39257812 C3.07409748 26.59532314 3.04120329 28.79752588 3 31 C2.67 31 2.34 31 2 31 C1.89042969 30.04480469 1.78085937 29.08960938 1.66796875 28.10546875 C0.69510759 20.17230011 -0.61224924 12.65672077 -3 5 C-2.01 5 -1.02 5 0 5 C0 3.35 0 1.7 0 0 Z " fill="#9C9F9E" transform="translate(430,106)"/>
<path d="M0 0 C1.32 0.33 2.64 0.66 4 1 C4.33 2.65 4.66 4.3 5 6 C8.02419525 5.41196203 11.01758453 4.77321882 14 4 C13.125 8.875 13.125 8.875 12 10 C4.89585666 10.58230683 4.89585666 10.58230683 1.5 8.375 C-0.37956836 5.39901677 -0.31424507 3.45669582 0 0 Z " fill="#D3A556" transform="translate(359,112)"/>
<path d="M0 0 C0.99 0 1.98 0 3 0 C3 1.32 3 2.64 3 4 C3.99 4 4.98 4 6 4 C5.79503906 4.63164063 5.59007812 5.26328125 5.37890625 5.9140625 C3.06586838 13.59467628 2.33851857 21.0039578 2 29 C1.67 29 1.34 29 1 29 C1 22.07 1 15.14 1 8 C0.01 8 -0.98 8 -2 8 C-1.47731534 5.23723823 -0.89130413 2.6739124 0 0 Z " fill="#9C998E" transform="translate(331,107)"/>
<path d="M0 0 C0.33 0 0.66 0 1 0 C1.13277344 0.73605469 1.26554687 1.47210938 1.40234375 2.23046875 C1.57894531 3.20628906 1.75554687 4.18210937 1.9375 5.1875 C2.11152344 6.15042969 2.28554688 7.11335938 2.46484375 8.10546875 C2.94798423 10.97272925 2.94798423 10.97272925 3.7421875 13.609375 C4 16 4 16 2.85546875 18.09765625 C2.30503906 18.74605469 1.75460937 19.39445312 1.1875 20.0625 C-0.94427704 22.61961972 -2.61397027 24.96425683 -4 28 C-4.99 28 -5.98 28 -7 28 C-5.96890825 24.25057545 -4.69935733 21.5552459 -2.375 18.5 C1.35635272 12.89749973 0.40812163 6.4573912 0 0 Z " fill="#B1AB98" transform="translate(339,79)"/>
<path d="M0 0 C2.43584906 0.94727464 4.74910506 1.85103113 7 3.1875 C9.75923522 4.30843931 11.17040451 3.87582718 14 3 C15.051875 2.46375 16.10375 1.9275 17.1875 1.375 C18.115625 0.92125 19.04375 0.4675 20 0 C20.66 0.33 21.32 0.66 22 1 C20.42982807 2.36940568 18.84334609 3.72012895 17.25 5.0625 C15.92742187 6.19365234 15.92742187 6.19365234 14.578125 7.34765625 C12 9 12 9 9.9375 8.96484375 C7.52950602 7.76570159 5.7454991 6.30333993 3.75 4.5 C3.04359375 3.8709375 2.3371875 3.241875 1.609375 2.59375 C1.07828125 2.0678125 0.5471875 1.541875 0 1 C0 0.67 0 0.34 0 0 Z " fill="#898C8B" transform="translate(371,101)"/>
<path d="M0 0 C1.32 0 2.64 0 4 0 C3.6875 3.375 3.6875 3.375 3 7 C-1.06849409 9.71232939 -3.16476784 9.30699887 -8 9 C-8.66 8.34 -9.32 7.68 -10 7 C-10 6.01 -10 5.02 -10 4 C-9.01 4 -8.02 4 -7 4 C-6.67 4.66 -6.34 5.32 -6 6 C-3.47266765 6.65555119 -3.47266765 6.65555119 -1 7 C-0.67 4.69 -0.34 2.38 0 0 Z " fill="#CFA761" transform="translate(401,112)"/>
<path d="M0 0 C0.33 0 0.66 0 1 0 C1.66 9.24 2.32 18.48 3 28 C2.34 28.33 1.68 28.66 1 29 C-0.86983411 23.46440417 -1.27866842 18.63288395 -1.1875 12.8125 C-1.18685547 12.01908203 -1.18621094 11.22566406 -1.18554688 10.40820312 C-1.15789262 6.74862306 -0.99358061 3.54170606 0 0 Z " fill="#B8B19E" transform="translate(331,118)"/>
<path d="M0 0 C6.18342391 6.18342391 6.18342391 6.18342391 6.3125 11.3125 C6.36857422 12.76076172 6.36857422 12.76076172 6.42578125 14.23828125 C5.89413757 17.68664899 4.63564038 18.81143077 2 21 C2.02320313 19.98679688 2.04640625 18.97359375 2.0703125 17.9296875 C2.0890841 16.57813242 2.1072828 15.22656931 2.125 13.875 C2.14175781 13.20984375 2.15851563 12.5446875 2.17578125 11.859375 C2.21847278 7.50483944 1.59996217 4.04399886 0 0 Z " fill="#A67B30" transform="translate(416,109)"/>
<path d="M0 0 C2 1 2 1 3 3 C1.02 4.65 -0.96 6.3 -3 8 C-7 6 -11 4 -15 2 C-11.0223864 0.88958287 -8.78801429 1.34981299 -4.9375 2.75 C-4.298125 2.8325 -3.65875 2.915 -3 3 C-1.22809091 1.64555699 -1.22809091 1.64555699 0 0 Z " fill="#CFCFCF" transform="translate(386,148)"/>
<path d="M0 0 C0.66 0.33 1.32 0.66 2 1 C2.13277344 1.59296875 2.26554687 2.1859375 2.40234375 2.796875 C3.17468727 5.64394524 4.57965272 7.08689388 6.5625 9.25 C7.20316406 9.95640625 7.84382813 10.6628125 8.50390625 11.390625 C8.99761719 11.92171875 9.49132812 12.4528125 10 13 C9.01 14.485 9.01 14.485 8 16 C-0.81548975 7.92255125 -0.81548975 7.92255125 -2 2 C-1.34 1.34 -0.68 0.68 0 0 Z " fill="#231F17" transform="translate(371,135)"/>
<path d="M0 0 C0.33 0.66 0.66 1.32 1 2 C0.67 2.66 0.34 3.32 0 4 C-0.23172827 6.54615009 -0.41894529 9.07396225 -0.5625 11.625 C-0.60568359 12.33140625 -0.64886719 13.0378125 -0.69335938 13.765625 C-0.79944751 15.51018537 -0.90022889 17.25506697 -1 19 C-3 18 -3 18 -4 15 C-4.51976132 9.97280031 -4.77635718 6.21305809 -2 1.875 C-1.34 1.25625 -0.68 0.6375 0 0 Z " fill="#AA7E31" transform="translate(346,110)"/>
<path d="M0 0 C-3.67046207 2.34813403 -6.67232662 2.15795226 -10.953125 1.9765625 C-11.61334656 1.95153656 -12.27356812 1.92651062 -12.95379639 1.90072632 C-15.05307889 1.81885175 -17.15137401 1.7221408 -19.25 1.625 C-20.67704359 1.56672689 -22.10412717 1.50942434 -23.53125 1.453125 C-27.02136694 1.31332364 -30.51075374 1.16021403 -34 1 C-34 0.67 -34 0.34 -34 0 C-30.20887322 -0.19965213 -26.41710441 -0.38245284 -22.625 -0.5625 C-21.56410156 -0.61857422 -20.50320313 -0.67464844 -19.41015625 -0.73242188 C-12.8305955 -1.0351624 -6.53037945 -0.87687397 0 0 Z " fill="#767877" transform="translate(405,83)"/>
<path d="M0 0 C2.31 0.33 4.62 0.66 7 1 C7 2.32 7 3.64 7 5 C5.329375 5.2165625 5.329375 5.2165625 3.625 5.4375 C0.17857953 5.78372035 0.17857953 5.78372035 -2 7 C-1.125 2.25 -1.125 2.25 0 0 Z " fill="#848686" transform="translate(422,145)"/>
<path d="M0 0 C1.32 0 2.64 0 4 0 C4 0.66 4 1.32 4 2 C5.98 1.67 7.96 1.34 10 1 C9 4 9 4 6.6875 5.375 C4 6 4 6 1.6875 4.8125 C0 3 0 3 0 0 Z " fill="#9A9C9C" transform="translate(377,135)"/>
<path d="M0 0 C-1.06541016 0.18175781 -1.06541016 0.18175781 -2.15234375 0.3671875 C-3.07144531 0.53476563 -3.99054688 0.70234375 -4.9375 0.875 C-5.85402344 1.03742188 -6.77054687 1.19984375 -7.71484375 1.3671875 C-8.46894531 1.57601562 -9.22304688 1.78484375 -10 2 C-10.33 2.66 -10.66 3.32 -11 4 C-13.06640625 4.6328125 -13.06640625 4.6328125 -15.5625 5.125 C-16.38878906 5.29257813 -17.21507812 5.46015625 -18.06640625 5.6328125 C-18.70449219 5.75398438 -19.34257812 5.87515625 -20 6 C-20 5.34 -20 4.68 -20 4 C-13.42608049 0.7950279 -7.37726156 -2.09635849 0 0 Z " fill="#848685" transform="translate(371,82)"/>
<path d="M0 0 C0.99 0 1.98 0 3 0 C2.125 4.875 2.125 4.875 1 6 C-1.67058851 6.14115161 -4.32432238 6.04247107 -7 6 C-6.34 5.34 -5.68 4.68 -5 4 C-5.66 3.67 -6.32 3.34 -7 3 C-6.67 2.34 -6.34 1.68 -6 1 C-5.38125 1.20625 -4.7625 1.4125 -4.125 1.625 C-3.073125 1.810625 -3.073125 1.810625 -2 2 C-1.34 1.34 -0.68 0.68 0 0 Z " fill="#886528" transform="translate(370,116)"/>
<path d="M0 0 C1.32 0.33 2.64 0.66 4 1 C0.535 3.97 0.535 3.97 -3 7 C-2.67 7.66 -2.34 8.32 -2 9 C-3.96466413 10.06775224 -5.96855359 11.06553465 -8 12 C-8.66 11.67 -9.32 11.34 -10 11 C-9.52949219 10.54109375 -9.05898438 10.0821875 -8.57421875 9.609375 C-3.96631602 5.08450705 -3.96631602 5.08450705 0 0 Z " fill="#C9953B" transform="translate(405,98)"/>
<path d="M0 0 C3.33511388 2.9901021 5.21521119 5.89498574 7 10 C7 10.66 7 11.32 7 12 C5.68 12 4.36 12 3 12 C-0.42857143 4.71428571 -0.42857143 4.71428571 0 0 Z " fill="#838585" transform="translate(426,97)"/>
<path d="M0 0 C0.66 0 1.32 0 2 0 C2.33 0.66 2.66 1.32 3 2 C3.99 2.33 4.98 2.66 6 3 C6 4.98 6 6.96 6 9 C5.34 9 4.68 9 4 9 C4 7.68 4 6.36 4 5 C2.02 5 0.04 5 -2 5 C-1.34 3.35 -0.68 1.7 0 0 Z " fill="#9EA09F" transform="translate(425,141)"/>
<path d="M0 0 C4.29 0.33 8.58 0.66 13 1 C13.33 2.32 13.66 3.64 14 5 C15.98 5 17.96 5 20 5 C20 5.33 20 5.66 20 6 C16.7 6 13.4 6 10 6 C10.33 4.68 10.66 3.36 11 2 C7.37 2 3.74 2 0 2 C0 1.34 0 0.68 0 0 Z " fill="#524E47" transform="translate(357,124)"/>
<path d="M0 0 C0 4.29 0 8.58 0 13 C-0.66 12.67 -1.32 12.34 -2 12 C-2 9.03 -2 6.06 -2 3 C-4.31 4.98 -6.62 6.96 -9 9 C-7.67183131 4.6532661 -5.0855272 0 0 0 Z " fill="#A1772F" transform="translate(381,118)"/>
<path d="M0 0 C0 0.66 0 1.32 0 2 C0.31478446 3.33783393 0.64587656 4.67203709 1 6 C0.34 6 -0.32 6 -1 6 C-1 5.01 -1 4.02 -1 3 C-3.31 3.66 -5.62 4.32 -8 5 C-8 4.34 -8 3.68 -8 3 C-8.66 2.67 -9.32 2.34 -10 2 C-8.71211992 1.46987262 -7.41953322 0.9511671 -6.125 0.4375 C-5.40570313 0.14746094 -4.68640625 -0.14257812 -3.9453125 -0.44140625 C-2 -1 -2 -1 0 0 Z " fill="#808180" transform="translate(398,160)"/>
<path d="M0 0 C2.38419873 0.95367949 3.73467287 1.57989872 5.125 3.78125 C6.11000156 6.27893252 6.20359799 8.0776682 6.125 10.75 C6.10695313 11.54921875 6.08890625 12.3484375 6.0703125 13.171875 C6.03550781 14.07679687 6.03550781 14.07679687 6 15 C5.67 15 5.34 15 5 15 C4.67 11.37 4.34 7.74 4 4 C2.68 4.99 1.36 5.98 0 7 C0 4.69 0 2.38 0 0 Z " fill="#707171" transform="translate(410,109)"/>
<path d="M0 0 C4.51617599 -0.07654536 8.59085217 -0.10228696 13 1 C12.67 1.99 12.34 2.98 12 4 C10.3733152 3.71788123 8.74867104 3.42397625 7.125 3.125 C5.76761719 2.88136719 5.76761719 2.88136719 4.3828125 2.6328125 C2 2 2 2 0 0 Z " fill="#9A9D9C" transform="translate(401,84)"/>
<path d="M0 0 C-0.66 0.66 -1.32 1.32 -2 2 C-4.9425963 1.69347955 -7.34542308 1.32728846 -10 0 C-10 0.99 -10 1.98 -10 3 C-10.99 2.67 -11.98 2.34 -13 2 C-12.34 2 -11.68 2 -11 2 C-11 1.01 -11 0.02 -11 -1 C-6.99799622 -2.60080151 -3.95443764 -1.29279692 0 0 Z " fill="#7D7F7E" transform="translate(377,163)"/>
<path d="M0 0 C3.81684226 1.55500981 6.19195732 4.03595495 9 7 C7.3125 7.8125 7.3125 7.8125 5 8 C2.25 5.75 2.25 5.75 0 3 C0 2.01 0 1.02 0 0 Z " fill="#AFA997" transform="translate(343,150)"/>
<path d="M0 0 C1.98 0.495 1.98 0.495 4 1 C3.67 1.99 3.34 2.98 3 4 C2.77820215 5.89212737 2.59385985 7.78884472 2.4375 9.6875 C2.31181641 11.17830078 2.31181641 11.17830078 2.18359375 12.69921875 C2.12300781 13.45847656 2.06242187 14.21773437 2 15 C1.67 15 1.34 15 1 15 C0.7834375 13.63875 0.7834375 13.63875 0.5625 12.25 C0.09816667 9.1721709 0.09816667 9.1721709 -0.625 6.9375 C-1.1118389 4.42216567 -0.61560812 2.46243248 0 0 Z " fill="#1D1810" transform="translate(346,109)"/>
<path d="M0 0 C0.33 0 0.66 0 1 0 C1.13277344 0.73605469 1.26554687 1.47210938 1.40234375 2.23046875 C1.66724609 3.69419922 1.66724609 3.69419922 1.9375 5.1875 C2.19853516 6.63189453 2.19853516 6.63189453 2.46484375 8.10546875 C2.9523735 10.74239972 3.46671105 13.3719905 4 16 C3.34 16 2.68 16 2 16 C2 15.34 2 14.68 2 14 C1.34 14 0.68 14 0 14 C0 9.38 0 4.76 0 0 Z " fill="#A9A8A0" transform="translate(339,79)"/>
<path d="M0 0 C2.4375 0.375 2.4375 0.375 5 1 C5.33 1.66 5.66 2.32 6 3 C4.68 3 3.36 3 2 3 C2 3.99 2 4.98 2 6 C-0.86724686 5.42655063 -1.8614515 5.1385485 -4 3 C-2.68 3 -1.36 3 0 3 C0 2.01 0 1.02 0 0 Z " fill="#A6A9A7" transform="translate(364,159)"/>
<path d="M0 0 C0.66 0 1.32 0 2 0 C2 0.99 2 1.98 2 3 C3.32 3.33 4.64 3.66 6 4 C3 6 3 6 0 6 C0 5.01 0 4.02 0 3 C-0.66 2.67 -1.32 2.34 -2 2 C-1.34 1.34 -0.68 0.68 0 0 Z " fill="#A9ACAA" transform="translate(398,159)"/>
<path d="M0 0 C1.32 0.66 2.64 1.32 4 2 C4 2.66 4 3.32 4 4 C-2.435 4.495 -2.435 4.495 -9 5 C-9 4.34 -9 3.68 -9 3 C-6.36 3 -3.72 3 -1 3 C-0.67 2.01 -0.34 1.02 0 0 Z " fill="#484A49" transform="translate(403,122)"/>
<path d="M0 0 C0.66 0 1.32 0 2 0 C2.33 3.3 2.66 6.6 3 10 C2.01 10.495 2.01 10.495 1 11 C-0.20272819 8.59454362 -0.10071472 7.05003047 -0.0625 4.375 C-0.05347656 3.55773437 -0.04445313 2.74046875 -0.03515625 1.8984375 C-0.02355469 1.27195313 -0.01195312 0.64546875 0 0 Z " fill="#AEABA0" transform="translate(331,136)"/>
<path d="M0 0 C1.65 0 3.3 0 5 0 C3.68 0.33 2.36 0.66 1 1 C1 1.66 1 2.32 1 3 C1.66 3 2.32 3 3 3 C3.33 4.32 3.66 5.64 4 7 C2.35 7 0.7 7 -1 7 C-0.67 4.69 -0.34 2.38 0 0 Z " fill="#181715" transform="translate(393,124)"/>
<path d="M0 0 C2 1 2 1 3 3 C-1.43076923 6.07692308 -1.43076923 6.07692308 -4.3125 5.6875 C-4.869375 5.460625 -5.42625 5.23375 -6 5 C-4.73775586 2.47551173 -3.49988984 2.17182336 -1 1 C-0.67 0.67 -0.34 0.34 0 0 Z " fill="#C7C7C7" transform="translate(386,148)"/>
<path d="M0 0 C3.37503669 1.1858237 5.64722731 2.27573689 8 5 C6.25 5.6875 6.25 5.6875 4 6 C1.75 4.75 1.75 4.75 0 3 C0 2.01 0 1.02 0 0 Z " fill="#989B9A" transform="translate(345,81)"/>
<path d="M0 0 C0.99 0 1.98 0 3 0 C3.33 0.66 3.66 1.32 4 2 C6.01669827 3.13350534 6.01669827 3.13350534 8 4 C5.125 4.625 5.125 4.625 2 5 C1.34 4.34 0.68 3.68 0 3 C0 2.01 0 1.02 0 0 Z " fill="#B58635" transform="translate(391,116)"/>
<path d="M0 0 C1.65 1.65 3.3 3.3 5 5 C4.34 5.66 3.68 6.32 3 7 C1.68 5.35 0.36 3.7 -1 2 C-0.67 1.34 -0.34 0.68 0 0 Z " fill="#352F24" transform="translate(376,144)"/>
<path d="M0 0 C1.32 0 2.64 0 4 0 C4.33 1.32 4.66 2.64 5 4 C2.525 5.485 2.525 5.485 0 7 C0 4 0 4 1.5 2.3125 C2.2425 1.6628125 2.2425 1.6628125 3 1 C2.01 0.67 1.02 0.34 0 0 Z " fill="#504633" transform="translate(384,135)"/>
<path d="M0 0 C1.32 0 2.64 0 4 0 C3 3 3 3 1 4 C-0.99960012 4.039992 -3.00047242 4.04346799 -5 4 C-4.360625 3.71125 -3.72125 3.4225 -3.0625 3.125 C-0.84793921 2.17176549 -0.84793921 2.17176549 0 0 Z " fill="#CE993F" transform="translate(400,117)"/>
<path d="M0 0 C3.45925163 1.2491742 6.14693203 2.67527795 9 5 C7.68 5.33 6.36 5.66 5 6 C3.35 4.02 1.7 2.04 0 0 Z " fill="#747675" transform="translate(371,101)"/>
<path d="M0 0 C1.32 0 2.64 0 4 0 C4 1.65 4 3.3 4 5 C2.68 4.34 1.36 3.68 0 3 C0 2.01 0 1.02 0 0 Z " fill="#8D908F" transform="translate(377,135)"/>
</svg>
